<svg fill="#00ffe7" viewBox="0 0 24 24"><path d="M12 .5C5.373.5 0 5.873 0 12.5c0 5.284 3.438 9.748 8.205 11.323.6.112.82-.261.82-.577 0-.285-.011-1.04-.016-2.04-3.338.726-4.042-1.61-4.042-1.61-.546-1.387-1.333-1.756-1.333-1.756-1.09-.746.084-.731.084-.731 1.205.084 1.84 1.237 1.84 1.237 1.07 1.835 2.809 1.305 3.495.998.108-.775.418-1.305.762-1.606-2.665-.303-5.466-1.333-5.466-5.93 0-1.31.469-2.38 1.236-3.22-.124-.303-.535-1.523.117-3.176 0 0 1.008-.322 3.3 1.23a11.52 11.52 0 0 1 3.003-.404c1.02.005 2.047.138 3.003.404 2.291-1.552 3.297-1.23 3.297-1.23.653 1.653.242 2.873.118 3.176.77.84 1.235 1.91 1.235 3.22 0 4.61-2.803 5.625-5.475 5.921.43.371.823 1.102.823 2.222 0 1.604-.014 2.897-.014 3.293 0 .319.216.694.825.576C20.565 22.244 24 17.784 24 12.5 24 5.873 18.627.5 12 .5z"/></svg>