<svg fill="#0ff0fc" viewBox="0 0 24 24"><path d="M19.998 3a2.006 2.006 0 0 1 2.004 2.004v13.992A2.006 2.006 0 0 1 19.998 21H4.002A2.006 2.006 0 0 1 2 19.996V5.004A2.006 2.006 0 0 1 4.002 3h15.996zM8.232 17.25v-6.623H5.664V17.25h2.568zm-1.284-7.553c.822 0 1.332-.545 1.332-1.227-.015-.698-.51-1.227-1.317-1.227-.807 0-1.331.529-1.331 1.227 0 .682.509 1.227 1.302 1.227h.014zm5.27 7.553v-3.687c0-.197.014-.394.072-.535.159-.394.52-.803 1.127-.803.796 0 1.115.606 1.115 1.496v3.529h2.568v-3.782c0-2.026-1.082-2.97-2.525-2.97-1.165 0-1.68.656-1.973 1.115v.026h-.014a5.938 5.938 0 0 1 .014-.026V10.63h-2.568c.033.682 0 6.62 0 6.62h2.568zm0 0"/></svg>